<?xml version="1.0"?>
<svg version="1.1" xmlns="http://www.w3.org/2000/svg" width="400px" height="200px" style=""><path fill="#03131f" d="M111.68,123.48l-2.96-2.96q2.48-3.4,2.48-7.52l0-5.96q0-4.56-3.24-7.8t-7.76-3.24q-4.48,0-7.72,3.24t-3.24,7.8l0,5.96q0,4.48,3.24,7.72q3.28,3.28,7.72,3.28q0.48,0,0.96-0.06t0.84-0.12t0.86-0.22t0.76-0.24t0.82-0.32t0.74-0.32t0.8-0.38t0.74-0.34l3.48,3.48z M100.2,121.48q-3.36,0-5.92-2.56t-2.56-5.92l0-5.96q0-3.4,2.56-5.96t5.92-2.56q3.68,0,6.16,2.56q2.36,2.44,2.36,5.96l0,5.96q0,3.4-2,5.52l-3.52-3.56l-1.48,2l3,3.04q-1.52,1.48-4.52,1.48z M139.8336,95.96l-2.52,0l0,17.08q0,3.68-2.56,6.16q-2.52,2.4-6,2.4q-3.8,0-6.12-2.4q-2.36-2.44-2.36-6.16l0-17.08l-2.56,0l0,17.08q0,4.56,3.12,7.76q3.16,3.28,7.92,3.28q4.44,0,7.8-3.28q3.28-3.2,3.28-7.76l0-17.08z M146.0672,124.04l2.52,0l0-28.12l-2.52,0l0,28.12z M172.1008,98.44l-18.04,25.6l22.56,0l0-2l-18.04,0l18.04-26.08l-22.08,0l0,2.48l17.56,0z M223.4944,96l-2.52,0l0,17q0,3.36-2.56,5.92t-5.92,2.56t-5.92-2.56t-2.56-5.92l0-17l-2.52,0l0,17q0,3.36-2.56,5.92q-2.64,2.56-5.96,2.56q-3.36,0-5.92-2.56t-2.56-5.92l0-17l-2.52,0l0,17q0,4.44,3.28,7.72t7.72,3.28q3.04,0,5.72-1.68q2.64-1.64,3.8-4.28q1.44,2.56,4.24,4.28q2.72,1.68,5.76,1.68q4.48,0,7.76-3.28q3.24-3.24,3.24-7.72l0-17z M229.888,124.04l2.52,0l0-28.12l-2.52,0l0,28.12z M255.9216,98.44l-18.04,25.6l22.56,0l0-2l-18.04,0l18.04-26.08l-22.08,0l0,2.48l17.56,0z"/><path fill="#" d=""/></svg>
